<mxfile host="app.diagrams.net" modified="2023-06-04T17:03:13.737Z" agent="Mozilla/5.0 (X11; Linux x86_64) AppleWebKit/537.36 (KHTML, like Gecko) Chrome/113.0.0.0 Safari/537.36" version="21.3.7" etag="402J9Y3iB1lRGFZvQ7Zv" type="github">
  <diagram name="PÃ¡gina-1" id="lXToWC6w9fHbKJpjyJep">
    <mxGraphModel>
      <root>
        <mxCell id="0" />
        <mxCell id="1" parent="0" />
      </root>
    </mxGraphModel>
  </diagram>
</mxfile>
